<svg width="512" height="512" viewBox="0 0 512 512" fill="none" xmlns="http://www.w3.org/2000/svg">
  <defs>
    <linearGradient id="bg" x1="0" y1="0" x2="512" y2="512" gradientUnits="userSpaceOnUse">
      <stop stop-color="#667eea"/>
      <stop offset="1" stop-color="#764ba2"/>
    </linearGradient>
  </defs>
  <rect width="512" height="512" rx="108" fill="url(#bg)"/>
  <g transform="translate(128, 108) scale(10.67)" stroke="white" stroke-width="2" stroke-linecap="round" stroke-linejoin="round" fill="none">
    <path d="M20 21v-8a2 2 0 0 0-2-2H6a2 2 0 0 0-2 2v8"/>
    <path d="M4 16s.5-1 2-1 2.5 2 4 2 2.5-2 4-2 2.5 2 4 2 1.5-1 2-1"/>
    <path d="M2 21h20"/>
    <path d="M7 8v3"/>
    <path d="M12 8v3"/>
    <path d="M17 8v3"/>
    <path d="M7 4h.01"/>
    <path d="M12 4h.01"/>
    <path d="M17 4h.01"/>
  </g>
</svg>
